<svg width="488" height="135" viewBox="0 0 488 135" fill="none" xmlns="http://www.w3.org/2000/svg">
<path d="M85.7371 21.0723C83.2906 18.6259 78.5089 17.4583 71.4476 17.4583H18.0148C10.9534 17.4583 6.22734 18.6815 3.72528 21.0723C1.27883 23.5188 0 28.0225 0 34.5834V72.8371C0 79.4536 1.22323 84.0129 3.72528 86.4037C6.17174 88.7946 10.9534 90.0178 18.0148 90.0178H71.4476C78.5089 90.0178 83.235 88.7946 85.7371 86.4037C88.1835 84.0129 89.4623 79.4536 89.4623 72.8371V34.5834C89.4623 28.0225 88.1835 23.5188 85.7371 21.0723Z" fill="#FF931E"/>
<path d="M136.001 90.0182L177.09 17.4031H193.381L235.026 90.0182H216.066L207.337 74.1719H161.299L152.848 90.0182H136.001ZM168.472 61.05H200.276L184.596 31.5258L168.472 61.05Z" fill="white"/>
<path d="M272.39 90.0182V17.4031H334.497C340.279 17.4031 344.449 18.5151 347.007 20.7391C349.62 22.9632 350.899 26.5217 350.899 31.4702V48.5398C350.899 53.4327 349.62 56.9911 347.007 59.2708C344.394 61.4948 340.224 62.6069 334.497 62.6625H325.045L358.572 90.0739H334.33L305.084 62.6625H289.071V90.0739H272.39V90.0182ZM326.991 29.969H289.015V50.2078H326.991C329.938 50.2078 331.939 49.763 332.996 48.929C334.052 48.095 334.608 46.5937 334.608 44.4253V35.6959C334.608 33.583 334.052 32.1374 332.996 31.2478C331.939 30.4138 329.938 29.969 326.991 29.969Z" fill="white"/>
<path d="M469.107 17.4031H468.774L457.709 30.3582H470.275V76.3404H414.618V30.4138H431.688L433.467 27.4669L439.361 17.4587H415.675C408.613 17.4587 403.887 18.6819 401.385 21.0728C398.939 23.5192 397.66 28.0229 397.66 34.5838V72.8375C397.66 79.454 398.883 84.0133 401.385 86.4042C403.832 88.795 408.613 90.0182 415.675 90.0182H469.107C476.169 90.0182 480.895 88.795 483.397 86.4042C485.899 84.0133 487.122 79.454 487.122 72.8375V34.5838C487.122 27.9673 485.899 23.4636 483.397 21.0728C480.951 18.6263 476.169 17.4031 469.107 17.4031Z" fill="white"/>
<path d="M475.946 0H456.43L446.144 17.4032L438.527 30.4139H450.036L461.101 17.4032L475.946 0Z" fill="#FF931E"/>
<path d="M12.5103 112.759C14.2339 112.704 15.902 112.87 17.6256 113.148C18.8489 113.371 20.0165 113.816 21.0729 114.483C22.5185 115.428 23.6862 116.762 24.4646 118.319C25.2986 119.987 25.6878 121.822 25.6878 123.713C25.7434 125.659 25.2986 127.549 24.4646 129.328C23.7418 130.941 22.5185 132.275 21.0729 133.22C20.0165 133.888 18.9045 134.277 17.6812 134.499C16.0132 134.833 14.2895 134.944 12.5659 134.944H0.333649V112.759H12.5103ZM12.0099 115.817H4.00333V131.886H11.9543C15.5684 131.886 18.0704 131.274 19.5717 129.996C21.0729 128.717 21.7957 126.659 21.7957 123.768C21.7957 120.933 21.0173 118.931 19.5161 117.708C18.0148 116.484 15.5128 115.817 12.0099 115.817Z" fill="white"/>
<path d="M38.1978 134.944V112.76H41.9231V134.944H38.1978Z" fill="white"/>
<path d="M77.3967 115.817H60.0491V131.886H77.3967V125.381H68.3893V122.545H81.0664V129.718C81.0664 131.719 80.6772 133.109 79.9544 133.888C79.2315 134.666 77.8415 135 75.8399 135H61.4948C59.4375 135 58.1031 134.611 57.3803 133.888C56.6574 133.165 56.3238 131.775 56.3238 129.773V118.097C56.3238 116.095 56.6574 114.705 57.3803 113.983C58.1031 113.26 59.4931 112.871 61.4948 112.871H75.8399C77.8415 112.871 79.1759 113.204 79.9544 113.927C80.6772 114.65 81.0664 115.929 81.0664 117.819V118.375L77.3967 119.098V115.817Z" fill="white"/>
<path d="M94.9111 134.944V112.76H98.6364V134.944H94.9111Z" fill="white"/>
<path d="M122.767 115.817V135H119.098V115.817H108.978V112.815H132.998V115.817H122.767Z" fill="white"/>
<path d="M136.612 134.944L148.733 112.76H152.681L165.024 134.944H160.91L158.074 129.495H143.062L140.226 134.944H136.612ZM144.619 126.66H156.573L150.568 115.317L144.619 126.66Z" fill="white"/>
<path d="M175.366 134.944V112.76H179.091V131.831H195.883V134.889H175.366V134.944Z" fill="white"/>
<path d="M247.37 115.818H231.69V121.989H245.646C247.592 121.989 248.982 122.379 249.705 123.101C250.428 123.824 250.817 125.214 250.817 127.216V129.718C250.817 131.775 250.483 133.165 249.76 133.888C249.038 134.611 247.703 135 245.702 135H232.746C230.745 135 229.355 134.611 228.632 133.888C227.909 133.165 227.52 131.775 227.52 129.718V129.106L230.967 128.328V131.886H247.481V125.214H233.525C231.523 125.214 230.133 124.825 229.41 124.102C228.688 123.379 228.354 121.989 228.354 119.932V118.042C228.354 116.04 228.688 114.65 229.41 113.872C230.133 113.093 231.468 112.76 233.525 112.76H245.312C247.258 112.76 248.648 113.093 249.371 113.816C250.094 114.539 250.483 115.818 250.483 117.597V118.042L247.314 118.931L247.37 115.818Z" fill="white"/>
<path d="M273.78 115.817V135H270.111V115.817H259.991V112.815H284.011V115.817H273.78Z" fill="white"/>
<path d="M294.186 134.944V112.76H312.09C313.758 112.76 314.981 113.093 315.704 113.76C316.427 114.428 316.816 115.54 316.816 117.041V121.989C316.816 123.491 316.427 124.603 315.704 125.27C314.981 125.937 313.758 126.271 312.09 126.271H308.809L318.929 134.944H313.424L304.417 126.271H297.911V134.944H294.186ZM310.644 115.651H297.911V123.435H310.644C311.589 123.435 312.201 123.268 312.534 122.935C312.868 122.601 313.035 121.989 313.035 121.155V117.93C313.035 117.096 312.868 116.485 312.534 116.151C312.145 115.818 311.534 115.651 310.644 115.651Z" fill="white"/>
<path d="M327.491 134.944L339.612 112.76H343.56L355.903 134.944H351.844L349.009 129.495H333.996L331.161 134.944H327.491ZM335.553 126.66H347.507L341.503 115.317L335.553 126.66Z" fill="white"/>
<path d="M373.418 115.817V135H369.748V115.817H359.629V112.815H383.648V115.817H373.418Z" fill="white"/>
<path d="M392.989 134.944V112.76H414.34V115.762H396.715V121.934H407.501V124.881H396.715V131.942H414.507V135L392.989 134.944Z" fill="white"/>
<path d="M447.312 115.817H429.964V131.886H447.312V125.381H438.36V122.545H451.037V129.718C451.037 131.719 450.648 133.109 449.925 133.888C449.202 134.611 447.812 135 445.811 135H431.465C429.464 135 428.074 134.611 427.351 133.888C426.628 133.165 426.295 131.775 426.295 129.773V118.097C426.295 116.095 426.628 114.705 427.351 113.983C428.074 113.26 429.464 112.871 431.465 112.871H445.811C447.812 112.871 449.147 113.204 449.925 113.927C450.648 114.65 451.037 115.929 451.037 117.819V118.375L447.367 119.098L447.312 115.817Z" fill="white"/>
<path d="M470.831 134.944V125.27L459.6 112.76H464.214L472.888 122.657L481.173 112.76H485.676L474.556 125.159V134.889H470.831V134.944Z" fill="white"/>
</svg>
