<svg width="14" height="15" viewBox="0 0 14 15" fill="none" xmlns="http://www.w3.org/2000/svg">
<path d="M0 15V12.2727H14V15H0ZM2.8 9.54545H3.78L9.24 4.24432L8.2425 3.27273L2.8 8.59091V9.54545ZM1.4 10.9091V8.01136L9.24 0.392045C9.36833 0.267045 9.51708 0.170455 9.68625 0.102273C9.85542 0.0340909 10.0333 0 10.22 0C10.4067 0 10.5875 0.0340909 10.7625 0.102273C10.9375 0.170455 11.095 0.272727 11.235 0.409091L12.1975 1.36364C12.3375 1.48864 12.4396 1.63636 12.5038 1.80682C12.5679 1.97727 12.6 2.15341 12.6 2.33523C12.6 2.50568 12.5679 2.6733 12.5038 2.83807C12.4396 3.00284 12.3375 3.15341 12.1975 3.28977L4.375 10.9091H1.4Z" fill="#1C1B1F"/>
</svg>
