<svg width="18" height="18" viewBox="0 0 18 18" fill="none" xmlns="http://www.w3.org/2000/svg">
<g clip-path="url(#clip0_4297_68)">
<path d="M8.99961 11.6491C10.0371 11.6491 10.8781 10.8081 10.8781 9.77061C10.8781 8.73313 10.0371 7.89209 8.99961 7.89209C7.96214 7.89209 7.12109 8.73313 7.12109 9.77061C7.12109 10.8081 7.96214 11.6491 8.99961 11.6491Z" fill="black"/>
<path d="M9.7968 11.7769H8.20287C6.87676 11.7769 5.79785 12.8561 5.79785 14.1821V16.1319L5.80278 16.1622L5.93687 16.204C7.20241 16.5995 8.30212 16.7316 9.20735 16.7316C10.9748 16.7316 11.9991 16.2273 12.0624 16.1956L12.188 16.1315L12.2009 16.1319V14.1819C12.2018 12.8561 11.1233 11.7769 9.7968 11.7769Z" fill="black"/>
<path d="M5.16517 7.32888C6.83882 7.32888 8.19558 5.97212 8.19558 4.29847C8.19558 2.62483 6.83882 1.26807 5.16517 1.26807C3.49152 1.26807 2.13477 2.62483 2.13477 4.29847C2.13477 5.97212 3.49152 7.32888 5.16517 7.32888Z" fill="black"/>
<path d="M12.8344 7.32888C14.5081 7.32888 15.8645 5.97157 15.8645 4.29811C15.8645 2.62519 14.5075 1.26807 12.8344 1.26807C11.1604 1.26807 9.8042 2.62483 9.8042 4.29811C9.8042 5.97139 11.1604 7.32888 12.8344 7.32888Z" fill="black"/>
<path d="M7.52685 11.4816C7.04577 11.0667 6.73983 10.4541 6.73983 9.7707C6.73983 8.9326 7.19938 8.20104 7.87876 7.81081C7.43636 7.63476 6.95547 7.53516 6.45104 7.53516H3.87963C1.74042 7.53497 0 9.27612 0 11.415V14.5603L0.00784465 14.6094L0.224393 14.6767C2.22788 15.3028 3.97195 15.5183 5.41609 15.5261V14.1821C5.41609 12.8788 6.3164 11.7849 7.52685 11.4816Z" fill="black"/>
<path d="M14.12 7.53467H11.5489C11.0445 7.53467 10.5642 7.63428 10.1216 7.81032C10.8015 8.20055 11.2611 8.93174 11.2611 9.77021C11.2611 10.4532 10.9549 11.0659 10.4742 11.4807C10.9588 11.6013 11.4048 11.8492 11.7673 12.2119C12.2942 12.7391 12.5844 13.439 12.5843 14.1822V15.5258C14.0284 15.518 15.7726 15.3023 17.7758 14.6764L17.9923 14.6091L18.0003 14.56V11.4147C17.9996 9.27581 16.2592 7.53467 14.12 7.53467Z" fill="black"/>
</g>
<defs>
<clipPath id="clip0_4297_68">
<rect width="18" height="18" fill="white"/>
</clipPath>
</defs>
</svg>
