<svg width="18" height="18" viewBox="0 0 18 18" fill="none" xmlns="http://www.w3.org/2000/svg">
<path d="M17.8515 16.4599V0.695525C17.8515 0.511081 17.7783 0.334191 17.6478 0.20377C17.5174 0.0733483 17.3405 7.70098e-05 17.1561 7.70098e-05H1.39089C1.39089 7.70098e-05 1.33765 0 0.695447 0C0.511003 0 0.334114 0.0732696 0.203692 0.203691C0.0732703 0.334113 0 0.445598 0 0.630042V17.1554C0 17.3398 0.0732703 17.5167 0.203692 17.6471C0.334114 17.7775 0.511003 17.8508 0.695447 17.8508L17.1561 17.8564C17.3405 17.8564 17.5174 17.7832 17.6478 17.6528C17.7783 17.5223 17.8515 17.3454 17.8515 17.161C17.8515 17.1247 17.8515 16.4599 17.8515 16.4599ZM16.3641 16.4599H1.39089V1.39097H16.4598V16.4599H16.3641Z" fill="black"/>
<path d="M13.3127 3.62549H10.5713C10.4296 3.62549 10.2936 3.6818 10.1934 3.78205C10.0931 3.88229 10.0368 4.01825 10.0368 4.16002C10.0368 4.30178 10.0931 4.43774 10.1934 4.53799C10.2936 4.63823 10.4296 4.69455 10.5713 4.69455H12.0222L4.89035 11.8258V10.3758C4.89035 10.2341 4.83403 10.0981 4.73379 9.99787C4.63354 9.89763 4.49759 9.84131 4.35582 9.84131C4.21405 9.84131 4.07809 9.89763 3.97785 9.99787C3.8776 10.0981 3.82129 10.2341 3.82129 10.3758V13.1169C3.82125 13.1871 3.83505 13.2566 3.8619 13.3215C3.88874 13.3864 3.92812 13.4453 3.97776 13.495C4.0274 13.5446 4.08635 13.584 4.15122 13.6108C4.21609 13.6377 4.28561 13.6515 4.35582 13.6514H7.09719C7.23896 13.6514 7.37492 13.5951 7.47516 13.4949C7.57541 13.3946 7.63172 13.2587 7.63172 13.1169C7.63172 12.9751 7.57541 12.8392 7.47516 12.7389C7.37492 12.6387 7.23896 12.5824 7.09719 12.5824H5.64633L12.7782 5.44961V6.90048C12.7782 7.04224 12.8345 7.1782 12.9347 7.27845C13.035 7.37869 13.1709 7.43501 13.3127 7.43501C13.4545 7.43501 13.5904 7.37869 13.6907 7.27845C13.7909 7.1782 13.8472 7.04224 13.8472 6.90048V4.1591C13.847 4.0175 13.7906 3.88177 13.6904 3.78172C13.5901 3.68168 13.4543 3.62549 13.3127 3.62549Z" fill="black"/>
</svg>
