<svg width="25" height="25" viewBox="0 0 25 25" fill="none" xmlns="http://www.w3.org/2000/svg">
<mask id="mask0_email" style="mask-type:alpha" maskUnits="userSpaceOnUse" x="0" y="-1" width="25" height="26">
<rect y="-0.00012207" width="24.5784" height="24.5784" fill="#D9D9D9"/>
</mask>
<g mask="url(#mask0_email)">
<path d="M4.0963 20.4819C3.53304 20.4819 3.05086 20.2814 2.64975 19.8803C2.24865 19.4791 2.0481 18.997 2.0481 18.4337V6.14451C2.0481 5.58126 2.24865 5.09908 2.64975 4.69797C3.05086 4.29687 3.53304 4.09631 4.0963 4.09631H20.4819C21.0451 4.09631 21.5273 4.29687 21.9284 4.69797C22.3295 5.09908 22.5301 5.58126 22.5301 6.14451V18.4337C22.5301 18.997 22.3295 19.4791 21.9284 19.8803C21.5273 20.2814 21.0451 20.4819 20.4819 20.4819H4.0963ZM12.2891 13.3132L4.0963 8.19271V18.4337H20.4819V8.19271L12.2891 13.3132ZM12.2891 11.265L20.4819 6.14451H4.0963L12.2891 11.265ZM4.0963 8.19271V6.14451V18.4337V8.19271Z" fill="#1C1B1F"/>
</g>
</svg>